<svg xmlns="http://www.w3.org/2000/svg" width="46" height="46" viewBox="0 0 46 46">
    <defs>
        <style>
            .cls-2{fill:#fff}
        </style>
    </defs>
    <g id="announcement-icon" transform="translate(-85.335 -1521.219)">
        <circle id="Ellipse_34" cx="23" cy="23" r="23" fill="#414042" transform="translate(85.335 1521.219)"/>
        <g id="_726186" transform="translate(97.319 1533.219)">
            <g id="Group_29" transform="translate(.016 5.422)">
                <g id="Group_28">
                    <path id="Path_423" d="M11 134.745v-8.377c-.238.022-.472.059-.711.07H3.448a.687.687 0 0 0-.686.686v.686H.7a.687.687 0 0 0-.686.686v4.119a.687.687 0 0 0 .686.685h2.062v.686a.687.687 0 0 0 .686.686h.416l2.76 7.356a1.365 1.365 0 0 0 1.01.854 1.344 1.344 0 0 0 1.24-.378l1.649-1.635a1.37 1.37 0 0 0 .253-1.588l-2.3-4.609h1.823c.232.014.465.051.701.073z" class="cls-2" transform="translate(-.016 -126.368)"/>
                </g>
            </g>
            <g id="Group_31" transform="translate(12.372)">
                <g id="Group_30">
                    <path id="Path_424" d="M297.514.332a.49.49 0 0 0-.044-.065.678.678 0 0 0-.287-.22s-.007-.007-.011-.008h-.04A.683.683 0 0 0 296.94 0a.638.638 0 0 0-.133.027.758.758 0 0 0-.077.015.681.681 0 0 0-.3.195c-.006.005-.014.007-.019.012a14.446 14.446 0 0 1-8.394 4.974V14a14.444 14.444 0 0 1 8.394 4.973c.006.007.015.01.022.018a.666.666 0 0 0 .17.132c.021.012.037.03.058.04a.706.706 0 0 0 .28.06.717.717 0 0 0 .232-.04s.007-.007.011-.008a.668.668 0 0 0 .287-.22c.016-.022.029-.041.044-.065a.665.665 0 0 0 .113-.354V.686a.665.665 0 0 0-.114-.354z" class="cls-2" transform="translate(-288.016)"/>
                </g>
            </g>
        </g>
    </g>
</svg>
