<svg xmlns="http://www.w3.org/2000/svg" width="147.787" height="104.181" viewBox="0 0 147.787 104.181">
    <defs>
        <linearGradient id="7oaszsuica" x1=".5" x2=".5" y2="1" gradientUnits="objectBoundingBox">
            <stop offset="0" stop-color="#eafaff"/>
            <stop offset="1" stop-color="#d2f4ff"/>
        </linearGradient>
        <linearGradient id="p5b1tjkaab" x1=".5" x2=".5" y2="1" gradientUnits="objectBoundingBox">
            <stop offset="0" stop-color="#a4e9ff"/>
            <stop offset="1" stop-color="#7cdfff"/>
        </linearGradient>
        <linearGradient id="w1ejhgwgtd" x1=".978" x2=".188" y1=".5" y2=".5" gradientUnits="objectBoundingBox">
            <stop offset="0" stop-color="#a0d8f1"/>
            <stop offset="1" stop-color="#d2f4ff"/>
        </linearGradient>
        <linearGradient id="8710gti78e" x1=".748" x2=".185" y1=".702" y2=".168" gradientUnits="objectBoundingBox">
            <stop offset=".001" stop-color="#808285"/>
            <stop offset="1" stop-color="#414042"/>
        </linearGradient>
        <linearGradient id="e4vf6jc0sf" x1=".14" x2=".705" y1=".925" y2="-.015" gradientUnits="objectBoundingBox">
            <stop offset=".001" stop-color="#3ab2e6"/>
            <stop offset="1" stop-color="#a4e9ff"/>
        </linearGradient>
        <filter id="suqaecxfcc" width="71.095" height="71.095" x="76.692" y="0" filterUnits="userSpaceOnUse">
            <feOffset dy="3"/>
            <feGaussianBlur result="blur" stdDeviation="2.5"/>
            <feFlood flood-opacity=".102"/>
            <feComposite in2="blur" operator="in"/>
            <feComposite in="SourceGraphic"/>
        </filter>
    </defs>
    <g>
        <g>
            <path fill="url(#7oaszsuica)" d="M130.456 174.4h-95.25c-6.189 0-11.206-4.384-11.206-9.8v-63.7c0-2.706 2.508-4.9 5.6-4.9h117.665c-3.095 0-5.6 2.194-5.6 4.9v63.7c-.003 5.416-5.02 9.8-11.209 9.8z" transform="translate(-24 -36.925) translate(24 62.703) translate(-24 -96)"/>
            <path fill="url(#p5b1tjkaab)" d="M130.5 296.5H35.21c-6.191 0-11.21-4.388-11.21-9.8V272h117.706v14.7c0 5.413-5.019 9.8-11.206 9.8z" transform="translate(-24 -36.925) translate(24 62.703) translate(-24 -218.098)"/>
            <path fill="#3ab2e6" d="M98.141 145.022a1.794 1.794 0 0 0 1.794-1.794v-.614a5.969 5.969 0 0 0-5.962-5.962h-1.212v-2.192a1.793 1.793 0 0 0-3.587 0v2.192h-1.212a5.962 5.962 0 0 0-1.886 11.619l8.647 2.882a2.376 2.376 0 0 1-.751 4.629h-6.01a2.378 2.378 0 0 1-2.375-2.376v-.614a1.794 1.794 0 0 0-3.587 0v.614a5.969 5.969 0 0 0 5.962 5.962h1.212v2.192a1.793 1.793 0 1 0 3.587 0v-2.19h1.212a5.962 5.962 0 0 0 1.886-11.619l-8.647-2.882a2.376 2.376 0 0 1 .751-4.629h6.01a2.378 2.378 0 0 1 2.375 2.375v.614a1.794 1.794 0 0 0 1.793 1.793z" transform="translate(-24 -36.925) translate(24 62.703) translate(-65.117 -121.06)"/>
        </g>
        <g>
            <g filter="url(#suqaecxfcc)" transform="translate(-24 -36.925) translate(108.192 41.425) translate(-84.19 -4.5)">
                <circle cx="28.047" cy="28.047" r="28.047" fill="#fff" transform="translate(84.19 4.5)"/>
            </g>
            <g>
                <path fill="url(#w1ejhgwgtd)" d="M26.709 25.649l-4.035-6.988H4.89a4.359 4.359 0 0 1-4.152-3.143 6.024 6.024 0 0 0 .8 3.143l1.144 1.981 4.35 7.534a5.512 5.512 0 0 0 4.773 2.756H22.8a6.025 6.025 0 0 0 3.388-1.044c.017-.035 1.473-2.588.521-4.239z" transform="translate(-24 -36.925) translate(108.192 41.425) translate(10.999 12.734) translate(-.737 -.337)"/>
                <path fill="url(#8710gti78e)" d="M32.017 13.8l-5.344-9.26a6.024 6.024 0 0 0-1.963-2.057c-.12-.035-3.268-.943-4.372.97l-4.231 7.335 5.222 9.051 4.035 6.994c.953 1.652-.5 4.208-.524 4.243a6.026 6.026 0 0 0 1.833-1.976l.8-1.388 4.544-7.877a6.039 6.039 0 0 0 0-6.035z" transform="translate(-24 -36.925) translate(108.192 41.425) translate(10.999 12.734) translate(.508 -1.523)"/>
                <path fill="url(#e4vf6jc0sf)" d="M22.8 1.581H12.108A6.029 6.029 0 0 0 6.886 4.6l-5.344 9.252a6.023 6.023 0 0 0-.8 2.886c.268 2.215 3.382 3.143 3.382 3.143h8.11l5.222-9.044 4.231-7.329c1.1-1.911 4.252-1 4.372-.969a6.024 6.024 0 0 0-3.259-.958z" transform="translate(-24 -36.925) translate(108.192 41.425) translate(10.999 12.734) translate(-.737 -1.581)"/>
            </g>
        </g>
    </g>
</svg>
