<svg xmlns="http://www.w3.org/2000/svg" width="46" height="46" viewBox="0 0 46 46">
    <defs>
        <style>
            .cls-2{fill:#fff}
        </style>
    </defs>
    <g id="coin-gecko-icon" transform="translate(-149.335 -1521.219)">
        <circle id="bg" cx="23" cy="23" r="23" fill="#414042" transform="translate(149.335 1521.219)"/>
        <g id="icon" transform="translate(94.421 1943.531)">
            <path id="Path_2818" d="M251.217-381.429c-.01-.2-.012-.4-.039-.592a14.54 14.54 0 0 0-.357-1.831 10.206 10.206 0 0 0-.637-1.741 12.673 12.673 0 0 0-1.636-2.618 16.207 16.207 0 0 0-1.886-1.861c-.448-.389-.912-.761-1.367-1.143s-.935-.767-1.433-1.109a7.9 7.9 0 0 0-3.013-1.22 7.235 7.235 0 0 0-1.644-.163 5.724 5.724 0 0 0-1.271.113c-.036.007-.093-.005-.094.054s.049.064.1.073c.293.056.586.11.877.173.538.118 1.074.247 1.6.4.488.139.966.309 1.443.479.435.154.859.337 1.289.506a10.823 10.823 0 0 1 1.915.928 7.84 7.84 0 0 1 2.173 2.131 20.694 20.694 0 0 1 1.606 2.677 23.743 23.743 0 0 1 1.064 2.573 20.287 20.287 0 0 1 .592 1.994c.187.762.353 1.528.476 2.3.011.071 0 .182.089.182.066 0 .074-.112.081-.179.053-.484.087-.97.1-1.457.001-.222-.017-.446-.028-.669z" class="cls-2" transform="translate(-159.592 -19.276)"/>
            <path id="Path_2819" d="M77.916-414.911a15.6 15.6 0 0 0-15.6 15.6 15.6 15.6 0 0 0 15.6 15.6 15.6 15.6 0 0 0 15.6-15.6 15.6 15.6 0 0 0-15.6-15.6zm-2.034 14.858a2.832 2.832 0 0 1-2.832-2.832 2.832 2.832 0 0 1 2.832-2.832 2.832 2.832 0 0 1 2.832 2.832 2.832 2.832 0 0 1-2.832 2.832zm4.733 14.944c-1.12-5.478 5.353-10.3 7.955-13.6-.014.011-6.8 5.2-10.416 1.585 0 0 3.3 2.51 10.416-1.585a3.348 3.348 0 0 0 1.025-2.381 2.993 2.993 0 0 0-.99-1.746c-1.444-1.253-3.744-1.764-5.484-2.454q-.539-.214-1.082-.423a2.42 2.42 0 0 0-1.58-1.432 4.6 4.6 0 0 0-2.672.113 14.527 14.527 0 0 0-1.847-.26 8.821 8.821 0 0 0-4.83 1.262c-3.432 1.929-3.2 5.512-3.532 8.809A15.317 15.317 0 0 1 66-391.125a14.387 14.387 0 0 1-2.54-8.185 14.455 14.455 0 0 1 14.455-14.455A14.455 14.455 0 0 1 92.37-399.31a14.458 14.458 0 0 1-11.755 14.201zm4.655-15.008a.6.6 0 0 1 .6-.6.6.6 0 0 1 .6.6.6.6 0 0 1-.6.6.6.6 0 0 1-.6-.6z" class="cls-2"/>
            <circle id="Ellipse_55" cx="1.969" cy="1.969" r="1.969" class="cls-2" transform="rotate(-13.34 -1697.13 -518.85)"/>
        </g>
    </g>
</svg>
