<svg xmlns="http://www.w3.org/2000/svg" width="46" height="46" viewBox="0 0 46 46">
    <g transform="translate(-149.335 -1521.219)">
        <circle cx="23" cy="23" r="23" fill="#414042" transform="translate(149.335 1521.219)"/>
        <path fill="#fff" d="M25.176 17.56a1.547 1.547 0 0 1-1.578.106 2.336 2.336 0 0 1-.9-2.153v-3.224c0-1.547-.613-2.649-1.638-2.947-1.733-.507-3.027 1.616-3.526 2.414l-3.065 4.96v-6.054c-.034-1.4-.488-2.232-1.347-2.482-.568-.166-1.419-.1-2.247 1.165l-6.852 11a12.105 12.105 0 0 1-1.377-5.653A11.932 11.932 0 0 1 14.472 2.671a11.948 11.948 0 0 1 11.843 12.02v.068a2.992 2.992 0 0 1-1.135 2.8zm3.784-2.86v-.064A14.624 14.624 0 0 0 14.472 0 14.615 14.615 0 0 0 0 14.692a14.6 14.6 0 0 0 14.472 14.7 14.3 14.3 0 0 0 9.837-3.92 1.347 1.347 0 0 0 .068-1.892 1.3 1.3 0 0 0-1.833-.092l-.006.005a11.7 11.7 0 0 1-16.544-.437q-.163-.172-.319-.35l6.167-9.913v4.574c0 2.2.851 2.91 1.566 3.118s1.809.064 2.955-1.8l3.405-5.513c.106-.178.208-.329.3-.462v2.8a4.914 4.914 0 0 0 2.27 4.506 4.162 4.162 0 0 0 4.241-.17 5.634 5.634 0 0 0 2.365-5.146z" transform="translate(158.335 1529.219)"/>
    </g>
</svg>
