<svg xmlns="http://www.w3.org/2000/svg" width="110" height="70" viewBox="0 0 110 70">
    <g>
        <path fill="none" d="M0 0H110V70H0z" transform="translate(.775 -3.82) translate(-.775 3.82)"/>
        <g transform="translate(.775 -3.82) translate(43.224 6.82)">
            <circle cx="32" cy="32" r="32" fill="#f0b90b"/>
            <path fill="#fff" fill-rule="evenodd" d="M26.456 15.719l12.4-12.4 4.943 4.943-12.4 12.4zm.009 14.814l19.81-19.812 4.943 4.943-19.81 19.812zm27.22-12.39L33.874 37.957l4.943 4.943 19.814-19.812zm-34.632 4.978L24 18.178l4.943 4.943L24 28.064z" transform="translate(-6.768 9.661)"/>
        </g>
        <g transform="translate(.775 -3.82) translate(0 -.161)">
            <circle cx="32" cy="32" r="32" fill="#3ab2e6" transform="translate(1.225 6.981)"/>
            <path fill="#fff" d="M35.257 28.132L30.4 19.716H8.978a6.568 6.568 0 0 1-5-3.787 7.254 7.254 0 0 0 .968 3.787L6.323 22.1l5.24 9.074a6.638 6.638 0 0 0 5.749 3.32h13.234a7.261 7.261 0 0 0 4.081-1.258c.023-.036 1.773-3.116.63-5.104z" transform="translate(8.044 22.536)"/>
            <path fill="#d6d6d6" d="M28.934 24.842L22.5 13.694a7.251 7.251 0 0 0-2.365-2.476c-.144-.042-3.936-1.134-5.266 1.167l-5.1 8.826 6.29 10.889 4.861 8.42c1.146 1.988-.606 5.064-.631 5.107a7.255 7.255 0 0 0 2.211-2.374l.964-1.67 5.471-9.483a7.261 7.261 0 0 0 0-7.263z" transform="translate(22.381 10.149)"/>
            <path fill="#eaeaea" d="M30.544 10.675H17.67a7.261 7.261 0 0 0-6.288 3.631L4.944 25.454a7.252 7.252 0 0 0-.968 3.478C4.3 31.6 8.05 32.719 8.05 32.719h9.768l6.288-10.893L29.2 13c1.329-2.3 5.122-1.209 5.266-1.167a7.254 7.254 0 0 0-3.922-1.158z" transform="translate(8.046 9.536)"/>
        </g>
    </g>
</svg>
