<svg xmlns="http://www.w3.org/2000/svg" width="110" height="70" viewBox="0 0 110 70">
    <defs>
        <style>
            .cls-3{fill:#fff}
        </style>
    </defs>
    <g id="dop-bnb" transform="translate(.775 -3.82)">
        <path id="bg" fill="none" d="M0 0H110V70H0z" transform="translate(-.775 3.82)"/>
        <g id="BNB">
            <circle id="Ellipse_28" cx="31.891" cy="31.891" r="31.891" fill="#f0b90b" transform="translate(43.08 6.82)"/>
            <path id="Path_359" d="M25.646 31.444l-4.879 4.913-4.913-4.913 4.913-4.913zM37.54 19.551l8.4 8.4 4.913-4.913-8.4-8.37-4.913-4.91-4.913 4.913-8.37 8.37 4.913 4.913zm16.773 6.98l-4.879 4.912 4.913 4.913 4.879-4.913zM37.54 43.338l-8.4-8.4-4.879 4.913 8.4 8.4 4.879 4.879 4.913-4.913 8.4-8.4-4.913-4.88zm0-6.98l4.913-4.914-4.913-4.913-4.913 4.913z" class="cls-3" transform="translate(37.432 7.268)"/>
        </g>
        <g id="DOP">
            <circle id="Ellipse_20" cx="32" cy="32" r="32" fill="#3ab2e6" transform="translate(1.225 6.981)"/>
            <path id="Path_360" d="M35.257 28.132L30.4 19.716H8.978a6.568 6.568 0 0 1-5-3.787 7.254 7.254 0 0 0 .968 3.787L6.323 22.1l5.24 9.074a6.638 6.638 0 0 0 5.749 3.32h13.234a7.261 7.261 0 0 0 4.081-1.258c.023-.036 1.773-3.116.63-5.104z" class="cls-3" transform="translate(8.044 22.536)"/>
            <path id="Path_361" fill="#d6d6d6" d="M28.934 24.842L22.5 13.694a7.251 7.251 0 0 0-2.365-2.476c-.144-.042-3.936-1.134-5.266 1.167l-5.1 8.826 6.29 10.889 4.861 8.42c1.146 1.988-.606 5.064-.631 5.107a7.255 7.255 0 0 0 2.211-2.374l.964-1.67 5.471-9.483a7.261 7.261 0 0 0 0-7.263z" transform="translate(22.381 10.149)"/>
            <path id="Path_362" fill="#eaeaea" d="M30.544 10.675H17.67a7.261 7.261 0 0 0-6.288 3.631L4.944 25.454a7.252 7.252 0 0 0-.968 3.478C4.3 31.6 8.05 32.719 8.05 32.719h9.768l6.288-10.893L29.2 13c1.329-2.3 5.122-1.209 5.266-1.167a7.254 7.254 0 0 0-3.922-1.158z" transform="translate(8.046 9.536)"/>
        </g>
    </g>
</svg>
