<svg xmlns="http://www.w3.org/2000/svg" width="46" height="46" viewBox="0 0 46 46">
    <g transform="translate(-149.335 -1521.219)">
        <circle cx="21" cy="21" r="21" fill="#fff" transform="translate(151.335 1525.219)"/>
        <path fill="#414042" d="M23 10.667a23.057 23.057 0 0 0-7.274 44.918c1.15.217 1.572-.5 1.572-1.108 0-.547-.019-2-.029-3.919-6.4 1.39-7.747-3.092-7.747-3.092a6.11 6.11 0 0 0-2.559-3.372c-2.083-1.429.161-1.4.161-1.4a4.821 4.821 0 0 1 3.523 2.375c2.051 3.524 5.384 2.506 6.7 1.918A4.916 4.916 0 0 1 18.8 43.9c-5.108-.577-10.476-2.559-10.476-11.39a8.9 8.9 0 0 1 2.367-6.184 8.212 8.212 0 0 1 .2-6.1s1.926-.618 6.325 2.363a21.64 21.64 0 0 1 11.5 0c4.37-2.981 6.3-2.363 6.3-2.363a8.44 8.44 0 0 1 .23 6.1 8.938 8.938 0 0 1 2.354 6.188c0 8.855-5.376 10.8-10.494 11.37a5.526 5.526 0 0 1 1.553 4.265c0 3.084-.029 5.563-.029 6.312 0 .6.4 1.325 1.581 1.095A23.029 23.029 0 0 0 23 10.667z" transform="translate(149.335 1510.552)"/>
    </g>
</svg>
