<svg xmlns="http://www.w3.org/2000/svg" width="206.721" height="190.565" viewBox="0 0 206.721 190.565">
    <defs>
        <style>
            .cls-1{fill:none;stroke:#fff;stroke-width:10px}
        </style>
    </defs>
    <g id="logo" transform="translate(5.001 5)">
        <path id="Path_306" d="M154.015 75.308L130.2 34.068H25.248A25.726 25.726 0 0 1 .746 15.518a35.554 35.554 0 0 0 4.742 18.55l6.751 11.692 25.674 44.464a32.529 32.529 0 0 0 28.172 16.265h64.844a35.559 35.559 0 0 0 20-6.162c.115-.208 8.709-15.28 3.086-25.019z" class="cls-1" transform="translate(-.737 74.076)"/>
        <path id="Path_307" d="M110.008 70.5L78.467 15.828A35.554 35.554 0 0 0 66.88 3.687c-.706-.208-19.288-5.564-25.8 5.722L16.106 52.7l30.817 53.419 23.813 41.274c5.623 9.747-2.97 24.832-3.091 25.042a35.562 35.562 0 0 0 10.822-11.64l4.724-8.189 26.817-46.485a35.639 35.639 0 0 0 0-35.621z" class="cls-1" transform="translate(81.945 1.975)"/>
        <path id="Path_308" d="M130.921 1.581H67.839a35.584 35.584 0 0 0-30.817 17.792L5.481 74A35.547 35.547 0 0 0 .738 91.035C2.322 104.107 20.7 109.584 20.7 109.584h47.864l30.817-53.375 24.972-43.252c6.511-11.277 25.1-5.925 25.8-5.718a35.553 35.553 0 0 0-19.234-5.658z" class="cls-1" transform="translate(-.729 -1.581)"/>
    </g>
</svg>
