<svg xmlns="http://www.w3.org/2000/svg" width="70.8" height="65.18" viewBox="0 0 70.8 65.18">
    <defs>
        <style>
            .cls-1{fill:none;stroke:#808285;stroke-width:4px}
        </style>
    </defs>
    <g id="market-cap-icon" transform="translate(2 1.487)">
        <g id="logo" transform="translate(0 .513)">
            <path id="Path_306" d="M52.671 35.776L44.6 21.8H9.042a8.717 8.717 0 0 1-8.3-6.285A12.046 12.046 0 0 0 2.347 21.8l2.287 3.962 8.7 15.066a11.022 11.022 0 0 0 9.545 5.511h21.97a12.048 12.048 0 0 0 6.775-2.088c.041-.068 2.952-5.175 1.047-8.475z" class="cls-1" transform="translate(-.737 14.838)"/>
            <path id="Path_307" d="M47.922 25.367L37.235 6.842a12.047 12.047 0 0 0-3.925-4.113c-.239-.071-6.535-1.885-8.743 1.939l-8.461 14.666 10.441 18.1 8.068 13.985c1.905 3.3-1.006 8.414-1.047 8.485a12.049 12.049 0 0 0 3.667-3.944l1.6-2.775 9.086-15.75a12.075 12.075 0 0 0 .001-12.068z" class="cls-1" transform="translate(17.116 -.81)"/>
            <path id="Path_308" d="M44.847 1.581H23.473a12.057 12.057 0 0 0-10.441 6.028L2.345 26.119A12.044 12.044 0 0 0 .738 31.89c.537 4.429 6.762 6.285 6.762 6.285h16.219L34.161 20.09l8.461-14.655c2.206-3.821 8.5-2.008 8.742-1.937a12.046 12.046 0 0 0-6.517-1.917z" class="cls-1" transform="translate(-.735 -1.581)"/>
        </g>
    </g>
</svg>
