<svg xmlns="http://www.w3.org/2000/svg" width="46.473" height="46.473" viewBox="0 0 46.473 46.473">
    <ellipse cx="18.5" cy="18" fill="#fff" rx="18.5" ry="18" transform="translate(4.887 5.237)"/>
    <path fill="#414042" d="M23.236 46.473A23.236 23.236 0 1 0 0 23.236a23.233 23.233 0 0 0 23.236 23.237zm-12.6-23.74l22.4-8.638c1.04-.376 1.948.254 1.611 1.826L30.835 33.89c-.283 1.274-1.04 1.584-2.1.984l-5.809-4.281-2.8 2.7a1.465 1.465 0 0 1-1.172.571l.412-5.912 10.766-9.726c.469-.412-.1-.645-.722-.234L16.1 26.368l-5.736-1.789c-1.245-.4-1.272-1.245.263-1.845z"/>
</svg>
