<svg xmlns="http://www.w3.org/2000/svg" width="69.715" height="80.286" viewBox="0 0 69.715 80.286">
    <defs>
        <style>
            .cls-1{fill:#808285;stroke:#808285}
        </style>
    </defs>
    <g id="trading-icon" transform="translate(0 .5)">
        <path id="Path_2854" d="M119.107 104a1.321 1.321 0 0 0-1.321 1.321v6.607h-3.964a1.322 1.322 0 0 0-1.321 1.321v34.358a1.321 1.321 0 0 0 1.321 1.321h3.964v5.286a1.321 1.321 0 1 0 2.643 0v-5.286h3.964a1.322 1.322 0 0 0 1.321-1.321V113.25a1.322 1.322 0 0 0-1.321-1.321h-3.964v-6.607a1.322 1.322 0 0 0-1.322-1.322zm3.964 10.572v31.715h-7.929v-31.715zm0 0" class="cls-1" transform="translate(-93.5 -86.821)"/>
        <path id="Path_2855" d="M231.107 72a1.322 1.322 0 0 0-1.321 1.321v6.607h-3.964a1.322 1.322 0 0 0-1.322 1.322v34.357a1.322 1.322 0 0 0 1.321 1.321h3.964v5.286a1.321 1.321 0 0 0 2.643 0v-5.286h3.964a1.322 1.322 0 0 0 1.321-1.321V81.25a1.322 1.322 0 0 0-1.321-1.321h-3.964v-6.608A1.322 1.322 0 0 0 231.107 72zm3.964 10.572v31.715h-7.929V82.572zm0 0" class="cls-1" transform="translate(-187 -60.107)"/>
        <path id="Path_2856" d="M343.107 168a1.322 1.322 0 0 0-1.321 1.321v6.607h-3.964a1.322 1.322 0 0 0-1.321 1.321v34.357a1.321 1.321 0 0 0 1.321 1.321h3.964v5.286a1.321 1.321 0 1 0 2.643 0v-5.286h3.964a1.321 1.321 0 0 0 1.321-1.321V177.25a1.322 1.322 0 0 0-1.321-1.321h-3.964v-6.607a1.321 1.321 0 0 0-1.322-1.322zm3.964 10.572v31.715h-7.929v-31.715zm0 0" class="cls-1" transform="translate(-280.499 -140.25)"/>
        <path id="Path_2857" d="M7.107 0a1.322 1.322 0 0 0-1.321 1.321v6.608H1.821A1.322 1.322 0 0 0 .5 9.25v34.358a1.322 1.322 0 0 0 1.321 1.321h3.965v5.286a1.321 1.321 0 1 0 2.643 0v-5.286h3.964a1.322 1.322 0 0 0 1.321-1.321V9.25a1.322 1.322 0 0 0-1.321-1.321H8.429V1.321A1.322 1.322 0 0 0 7.107 0zm3.964 10.572v31.714H3.143V10.572zm0 0" class="cls-1"/>
    </g>
</svg>
