<svg xmlns="http://www.w3.org/2000/svg" width="66.49" height="66.49" viewBox="0 0 66.49 66.49">
    <g>
        <path fill="#808285" d="M39.289 12.629V7.453C39.289-2.485 0-2.485 0 7.453v30.275c0 3.906 6.115 6.341 13.471 7.207-2.691 1.207-4.4 2.837-4.4 4.9v9.083c0 4.969 9.883 7.569 19.645 7.569s19.645-2.6 19.645-7.569v-4.564C57.6 54.1 66.49 51.522 66.49 46.81V19.563c0-6.274-15.654-8.582-27.201-6.934zM19.645 3.022c10.755 0 16.622 2.994 16.622 4.533s-5.867 4.534-16.622 4.534S3.022 9.095 3.022 7.555 8.89 3.022 19.645 3.022zM3.022 11.761c3.667 2.207 10.162 3.351 16.622 3.351s12.956-1.145 16.623-3.351v1.5c-5.251 1.165-9.067 3.292-9.067 6.382v.894a47.931 47.931 0 0 1-7.556.617c-10.755 0-16.622-2.994-16.622-4.533v-4.86zm27.2 30.222c.288.173.587.341.908.5-.3-.013-.6-.025-.908-.033zm-27.2-21.156c3.667 2.207 10.162 3.351 16.622 3.351a51.227 51.227 0 0 0 7.556-.593v7.532a47.931 47.931 0 0 1-7.556.617C8.89 31.733 3.022 28.739 3.022 27.2v-6.373zm0 16.951v-6.373c3.667 2.207 10.162 3.351 16.622 3.351a51.227 51.227 0 0 0 7.556-.593v7.532a47.931 47.931 0 0 1-7.556.617C8.89 42.311 3.022 39.317 3.022 37.778zm42.312 21.156c0 1.539-5.867 4.533-16.622 4.533S12.09 60.473 12.09 58.934v-4.862c3.667 2.207 10.162 3.351 16.622 3.351 6.184 0 12.408-1.045 16.146-3.07.157.006.319.007.476.011v4.57zM28.711 54.4c-10.755 0-16.622-2.994-16.622-4.533s5.867-4.533 16.622-4.533 16.622 2.994 16.622 4.533S39.466 54.4 28.711 54.4zm34.756-7.556c0 1.463-5.354 4.209-15.111 4.481v-1.458c0-1.888-1.429-3.414-3.733-4.583.739.03 1.48.05 2.222.05 6.46 0 12.956-1.144 16.622-3.351v4.862zm0-9.067c0 1.539-5.867 4.533-16.622 4.533s-16.622-2.994-16.622-4.533v-4.861c3.667 2.207 10.162 3.351 16.622 3.351s12.955-1.144 16.622-3.351zm0-9.067c0 1.539-5.867 4.533-16.622 4.533s-16.622-2.993-16.622-4.532v-4.862c3.666 2.207 10.161 3.351 16.622 3.351s12.955-1.144 16.622-3.351zm-16.622-4.532c-10.755 0-16.622-2.994-16.622-4.533s5.867-4.533 16.622-4.533 16.622 2.994 16.622 4.533-5.867 4.533-16.622 4.533z"/>
    </g>
</svg>
