<svg xmlns="http://www.w3.org/2000/svg" width="46.473" height="46.473" viewBox="0 0 46.473 46.473">
    <circle cx="18" cy="18" r="18" fill="#fff" transform="translate(4.804 5.237)"/>
    <path fill="#414042" d="M23.236 0a23.236 23.236 0 1 0 23.237 23.236A23.239 23.239 0 0 0 23.236 0zm10.61 18.117q.015.343.015.689a15.072 15.072 0 0 1-15.175 15.175 15.1 15.1 0 0 1-8.175-2.4 10.847 10.847 0 0 0 1.272.074 10.7 10.7 0 0 0 6.624-2.283 5.339 5.339 0 0 1-4.983-3.7 5.316 5.316 0 0 0 2.409-.091 5.335 5.335 0 0 1-4.279-5.228v-.068a5.3 5.3 0 0 0 2.416.667 5.338 5.338 0 0 1-1.651-7.12A15.142 15.142 0 0 0 23.314 19.4a5.336 5.336 0 0 1 9.086-4.86 10.7 10.7 0 0 0 3.387-1.295 5.354 5.354 0 0 1-2.345 2.95 10.637 10.637 0 0 0 3.063-.84 10.839 10.839 0 0 1-2.659 2.762zm0 0"/>
</svg>
