<svg xmlns="http://www.w3.org/2000/svg" width="40" height="40" viewBox="0 0 40 40">
    <defs>
        <style>
            .cls-2{fill:#3ab2e6}
        </style>
    </defs>
    <g id="wallet-icon" transform="translate(-1160 -307)">
        <path id="bg" fill="none" d="M0 0H40V40H0z" transform="translate(1160 307)"/>
        <g id="wallet" transform="translate(1165 287.045)">
            <path id="Path_317" d="M26.4 30.3a3.958 3.958 0 0 0-3.941-3.646H3.954A3.959 3.959 0 0 0 0 30.61V48.9a3.959 3.959 0 0 0 3.954 3.954h21.372A3.959 3.959 0 0 0 29.28 48.9V34.1a3.96 3.96 0 0 0-2.88-3.8zM3.954 28.5h18.5a2.11 2.11 0 0 1 2.057 1.651H3.954a3.929 3.929 0 0 0-2.107.611v-.152a2.109 2.109 0 0 1 2.107-2.11zm21.372 22.512H3.954A2.109 2.109 0 0 1 1.847 48.9V34.1A2.109 2.109 0 0 1 3.954 32h21.372a2.109 2.109 0 0 1 2.107 2.107v3.223h-5.889a4.233 4.233 0 0 0 0 8.465h5.889V48.9a2.109 2.109 0 0 1-2.107 2.112zm2.107-7.062h-5.889a2.385 2.385 0 0 1 0-4.771h5.889z" class="cls-2"/>
            <circle id="Ellipse_19" cx=".962" cy=".962" r=".962" class="cls-2" transform="translate(20.925 40.672)"/>
        </g>
    </g>
</svg>
